<?xml version="1.0" encoding="UTF-8"?>
<svg xmlns="http://www.w3.org/2000/svg" version="1.1" viewBox="0 0 2048 2048">
  <!-- Generator: Adobe Illustrator 30.1.0, SVG Export Plug-In . SVG Version: 2.1.1 Build 136)  -->
  <defs>
    <style>
      .st0, .st1, .st2, .st3, .st4 {
        mix-blend-mode: multiply;
      }

      .st0, .st5 {
        fill: #69aacd;
      }

      .st6 {
        fill: #fcfdfc;
      }

      .st1, .st7 {
        fill: #367095;
      }

      .st8 {
        isolation: isolate;
      }

      .st9, .st2 {
        fill: #d2dce0;
      }

      .st10 {
        fill: #8597a5;
      }

      .st3 {
        fill: #1b3d5a;
      }

      .st4 {
        fill: #7da4bf;
      }
    </style>
  </defs>
  <g class="st8">
    <g id="_图层_1">
      <g>
        <path class="st3" d="M1997.14,621.4c-15.94-35.26-38.43-65.84-66.33-92.76-26.63-25.69-56.18-47.39-88.38-65.53l-36.46-20.54c-10.97-6.18-21.73-11.72-33.51-16.57-.93-.39-1.3-1.84-.49-2.69,21.94-23.04,44.26-44.91,64.74-69.23,27.57-32.74,44.45-65.21,48.99-108.2,4.71-44.59-8.4-92.69-39.49-125.53-27.47-29.02-64.23-48.23-104.56-50.35-47.53-2.49-92.79,14.43-127.94,45.95-11.84,10.62-21.73,21.75-32.48,33.44l-38.38,41.73c-.57.62-1.24.89-1.73.74-.76-.23-18.33-20.67-21.67-23.73l-7.86-7.21c-4.62-4.25-7.95-9.2-12.57-13.5-13.34-12.43-26.71-23.53-41.19-34.83-37.63-29.36-79.51-51.11-125.01-65.83-41.52-13.43-84.5-19.55-128.01-15.48-21.46,2-41.52,5.41-61.73,12.27-35.56,12.06-66.49,32.01-91.83,59.67-10.03,10.95-18.36,22.3-26.43,34.76-1.27,1.97-3.18,4.14-5.9,2.54-20.42-12.04-41.79-21.24-65.38-25.26-64.79-11.03-125.48,12.35-161.84,67.41-7.92,11.99-14.01,23.72-18.99,37.2-6.05,16.36-11.65,32.36-15.18,49.57-.22,1.08-.66,2.64-1.35,2.85-.69.21-2.38-.03-3.4-.48-18.38-8.02-36.49-14.46-56.3-18.51-34.27-7-68.89-5.56-103,2.34-50.21,11.63-88.19,35.69-124.11,71.99-16.24,16.42-30.8,33.53-44.9,51.92-.67.87-1.3,2.98-2.34,3.09-.85.09-2.04-1.89-2.6-2.7l-30.34-43.79c-36.63-52.86-88.86-83.07-150.67-97.89-7.88-1.89-15.72-5.05-23.93-3.77-7.83,1.22-12.51,15.39-6.11,20.14,6.9,5.12,15.34,6.18,22.87,9.55,12.93,5.79,24.37,12.96,36.22,20.77,1.75,1.16,1.04,4.04-.11,5.7l-45.13,64.83-51.69,74.12c-.67.96-.78,1.78-1.65,2.01-1.05.27-2.13,0-3.19-.9-13.1-11.12-16.68-11.18-27.57-24.45-.51-.71-4.56-6.88-12.33-10.43-5.78-2-12.83,6.1-11.81,10.25,1.03,4.17,2.83,7.98,5.6,11.25,3.62,4.27,46.81,48.49,71,63.16,41.05,24.89,89.5,38.43,137.31,31.33,27.14-4.03,59.77-17.37,82.6-33.6,20.85,21.71,44.14,38.9,70.8,51.55,11.8,5.6,23.29,9.04,35.62,12.8,17.29,5.26,34.52,6.76,52.62,6.97,19.35.23,37.03-2.32,55.72-6.86,93.79-22.78,152.44-90.14,179.05-180.67,53.17,21.23,98.49,23.5,150.22-1.14,20.81-9.91,43.84-31.36,57.34-49.76,17.81-24.28,25.37-41.21,37.15-68.67.36-.84.87-1.57,1.72-.96,13.19,9.4,25.68,18.14,39.65,26.64,68.42,41.6,142.34,52.44,220.55,34.13l61.6-14.42c24.87-5.83,61.87-11.1,86.73-7.72.67.09,1.13.56,1.6.78.76.36.57.96-.27,1.92l-60.75,69.22-27.02,31.21-77.68,89.99-26.27,30-72.48,83.51-103.34,120.42-50.3,57.99-78.56,92.3-67.51,78.47-64.59,75.37-109.96,128.82-24.1,28.19-66.38,77.54-68.44,80.37-27.13,32.05-20.66,24.42-16.49,18.66-90.89,106.74-35.41,41.8-63.87,75.14-58.34,69.56-46.62,56.38-16.47,20.57-13.7,18.49c-16.13,21.77-101.49,146.59-105.3,164.57-1.67,7.87,2.08,15.74,9.53,19,8.02,3.51,17.24,1.8,24.13-3.37l18.86-14.13,33.19-23.67c46.94-33.48,94.8-68.92,136.96-108.18l34.65-32.26,25.68-24.39,36.24-33.72,15.99-15,20.54-19.45,17.33-16.64,15.61-14.5,56.63-53.45,125.24-118.43,37.44-34.85,106.9-100.94,78.33-73.62,43.24-40.89,66.91-63.01,37.08-34.93,34.99-33.14,87.2-82.62,42.21-39.9,71.64-67.24,36.85-34.44,92.17-86.56,41.14-39,30.33-28.74,101.43-95.37,56.25-53.8,33.53-31.68,66.36-63.42c1.98-1.89,3.17-1.41,5.39-.26l52.48,27.33c7.41,3.85,15.81,6.63,21.74,12.53,11.62,11.54,17.31,27.07,21.26,42.75,4.32,17.15,5.48,34.43,1.24,51.57-2.41,9.74-4.78,19.01-9.07,28.04-8,16.82-18.09,31.64-29.65,46.29l-45,57.05c-28.87,36.6-50.38,83.18-56.08,129.73-3.04,24.84-2.9,49.34-.2,74.13.12,1.16.33,2.19-.27,2.31-.85.17-2.08.57-3.25.65-43.3,2.88-85.07,12.55-124.26,31.29-34.71,16.59-63.77,41.22-87.2,71.65-30.02,38.99-45.33,90.42-47.01,139.48-.65,18.94-1.13,37.14.22,55.97l1.59,22.08c.06.92.11,1.64-.13,2.41-.21.69-1.48.67-2.58.36-13.2-3.73-25.88-5.73-39.58-7.88-52.57-8.25-101.29-5.94-152.09,10.21-9.43,2.99-17.88,7.38-26.87,11.26-9.83,4.25-18.43,9.72-27.7,15.28-20.48,12.27-37.58,28.45-53.22,46.41-29.67,34.09-47.89,75.13-56.82,119.08-8.2,40.35-7.86,55.78-10.25,95.86-.06.99.05,1.71-.06,2.48-.15,1.03-1.35.69-2.5.34l-37.15-11.34c-55.13-16.83-116.72-21.56-170.66,1.09-13.29,5.58-24.35,13.03-35.39,21.62-8.53,6.64-14.05,14.17-17.62,24.54-6.49,18.81-11.13,37.91-13.84,57.89-.16,1.2-.92,3.5-.4,4.53.43.85,2.84.63,3.95.1l36.29-17.5c4.25-2.05,8.52-3.14,12.64-5.68,8.38-5.17-5.71-7.2,37.88-16.04.95-.19,2.5.22,2.9,1.13l49.08,111.64,19.39,44.67,30.62,70.47c-1.12.31-1.66.4-2.07.4h-1.5c-10.57-.03-20.89,2.24-31.64,1.05l-22.77-2.52c-1.84-.2-3.69-.71-3.75,1.17-.18,6.09-1.31,11.64-1.68,18.06l-5.41,22.9-.04.04c-2.26,7.34-5.63,14.49-3.99,23.03.36,1.88,3.8,4.44,5.93,4.42,8.73-.09,16.98.74,25.74.21,23.52-1.42,41.98-2.84,64.95-9.84,61.67-18.79,104.95-63.11,128.15-122.61,6.78-17.41,12.65-33.94,15.63-52.33l7.23-44.61c31.41,10.69,62.5,15.76,94.87,18.52,12.16,1.03,22.7.55,34.62-.36,73.21-5.56,134.21-37.64,183.35-91.56,40.47-44.4,60.16-96.29,67.43-155.62,3.26-26.61,4.86-52.31,1.88-79.73l41.85,3.87c34.69,3.21,68.44-2.23,100.92-14.76,35.57-13.73,69.24-39.1,92.57-69.23,63.52-82.05,53.95-181.57,26.82-276.62,45.76-7.45,81.55-18.14,120.72-41.07,69.93-42.87,114.07-112.3,130.14-192.29,12.91-64.27,3.22-127.47-23.65-186.89ZM807.2,1634.99l-23.88,9.07c1.39-9.89,4.54-18.42,9.11-26.65,2.75-4.96,7.01-7.64,11.44-10.77,14.79-10.46,23.98-15.28,42.12-20.62-15.87,13.03-30.53,29.64-38.79,48.97ZM1323.18,67.07c15.87,3.93,30.08,10.14,44.87,16.6,27.72,12.1,62.23,33.34,85.18,53.08l18.4,15.83c24.41,20.99,45.9,44.68,65.06,70.76l63.47,86.38h.02c14.61,19.89,30.3,39.78,47.15,58.43-9.02,12.43-19.1,22.52-30.62,33.73-28.2-27.13-52.4-61.14-74.38-93.19l-31.3-45.64-28.88-38.38c-34.09-45.29-73.04-86.12-119.36-119.13-10.04-7.16-19.95-12.81-30.51-18.97-19.27-11.24-39.19-19.05-60.68-25.34,17.99-.78,34.74,1.67,51.58,5.84ZM1619.7,299.61l19.02-16.9c11.09-10.06,22.62-18.69,35.11-26.93,9.65-6.37,19.21-11.94,30.72-14.2,5-.98,11.8-.41,14.47,4.41,2.98,5.39,1.15,11.96-.29,17.62-4.09,10.99-9.34,20.59-15.63,30.52-12.52,20.21-25.85,39.08-41.97,58.31h0l-41.42-52.83ZM1601.69,417.5c-.03.69-.65,2-1.39,2.75l-19.49,19.63c-16.12,16.23-33.81,30.03-51.76,44.22h0c-8.9,7.05-17.79,12.66-27.31,18.7-7.01,4.45-31.38,18.2-37.84,13.98-7.04-4.6,1.15-25.63,4.55-32.17,22.92-44.03,54.59-83.05,88.58-119.97l16.91,21.43c8.16,10.33,17.15,19.26,26.39,28.59.79.8,1.39,2.15,1.36,2.84ZM1308.03,138.98l-17.13,47.03h0c-7.72,24.21-16.09,45.29-24.71,69.24-5.54,2.9-10.86,5.52-17.73,7.01l10.43-63.41,19.95-116.62c15.27,5.61,28.85,12.59,43.18,19.82l-14,36.93ZM1307.65,179.85l25.25-71.58c6.2,3.24,11.74,6.66,16.32,11.6,0,0-27.05,67.09-27.19,66.46-7.26-1-11.32-2.4-14.38-6.49ZM1319.47,194.25l-26.52,64.41c-1.57,3.82-3.49,6.95-7.24,9.71-2.22,1.64-10.14-3-9.54-6.11l27.83-74.09c4.13,3.63,9.32,5.6,15.47,6.08ZM1334.58,190.57l25.49-63.66,30.5,25.06-25.76,39.8-25.22,38.39h.02l-23.93,8.09,18.9-47.68ZM1368,209.29c1.35,3.91,4.66,7.06,10.78,10.05l-26,35.5c-3.52,3.89-11.3,3.39-15.65.11l30.87-45.65ZM1372.88,202.91h-.01s27.06-42.38,27.06-42.38c5.34,3.77,9.16,8.18,13.68,13l-29.7,38.61c-3.22-.65-7.63-1.95-11.03-9.23ZM1422.3,182.75l20.5,22.04-13.01,9.76-31.9,1.94,24.41-33.74ZM1451.06,214.31l10.56,14.37-14.95,9.65c-2.77-1.18-7.11-6.03-9.33-12.21l13.72-11.81ZM1234.65,166.93l14.53-91.96c6.32.21,12.15,1.65,17.93,3.74l-16.19,90.66c-6.09,2.19-11.01,1.2-16.27-2.45ZM1235.51,84.5l-5.87,33.34-14.14,91.74-8.97,56.96c-6.25-.84-11.67-3.02-16.67-6.36l2.78-179.54c14.15-4.74,29.02-6.94,43.95-6.33l-1.08,10.19ZM918.21,134.72c19.48-6.04,40.26.4,59.22,7.7,11.18,4.31,21.61,8.47,31.69,15.46-1.91,4.54-7.32,17.89-10.6,18.22-4.45.44-3.99-18.38-20.31-25.25h0c-11.07-4.67-19.86,4.35-24.14,14.49-7.77-3.78-15.78-4.15-23.64-4.78l-7.86-13.27c-5.16-6.87-19.49-3.79-27.5-.29,0,0,16.9-10.35,23.13-12.28ZM945.49,223.85c6.34,12.27,13.31,25.52,17.46,39.25,1.72,5.67-4.65,11.58-6.22,15.83h0s-11.87-26.04-11.87-26.04c-3.44-7.53-8.07-14.64-9.6-23.1-.71-3.93,6.79-7.67,10.23-5.94ZM903.09,159.17c.04-2.58,3.69-4.95,5.64-5.11,2.32-.19,6.14.16,7.39,2.94l26.25,58.44c-4.8.17-9.01,1.34-10.74,6.61h0M938.47,178.47c9.11.05,15.94,3.2,22.16,7.02l18.7,42.2-9.07,21.96-31.79-71.18ZM967.89,172.26c-1.44-3.39-1.52-7.69,1.42-9.28,3.18-1.72,7.89-1.62,9.77,2.01,4.98,9.61,9.2,18.97,12.86,29.76-2.21,5.73-3.9,10.95-7.47,16.5l-16.58-38.99ZM893.22,169.22c3.75,7.49,7.17,14.47,10.63,22.05l46.33,101.6c-.93,3.2-10.43,17.29-11.43,17.08l-66.08-138.85c7.77-10.44,14.66-13.65,20.55-1.88ZM839.16,290.29l-10.74-18.38c-2-4.83-2-7.08,3.57-22.72,6.94,11.25,15.87,30.09,17.32,33.26-3.16-.98-10.68,4.28-10.16,7.84ZM822.2,284.45l11.49,21.81c-5.53-.1-10.82-2.65-15.88-5.27l4.4-16.54ZM853.3,290.29l24.63,47.24c-3.45,4.59-13.36,1.69-14.38.31l-21.02-40.17c1.84-3.53,4.15-7.92,10.77-7.39ZM839.93,235.9c2.18-8.31,3.23-19.63,7.29-27.34l59.84,119.75c-6.25,2.49-13.25,1.94-20.72-.56l-46.4-91.85ZM854,194.17c.83-4.5,5.26-11.67,8.88-14.23l32.2,66.89c-4.56.8-8.39,3-11.37,6.85l-29.72-59.52ZM887,261.25c2.66-3.74,6.08-6.56,11.64-6.75l32.06,65.92c-.52,3.96-5.48,7.77-9.29,10.61l-34.41-69.78ZM602.06,281.37l8.79-4.12c4.03-1.89,8.31-3.39,12.69-4.71,24.92-7.52,67.07-3.61,89.89,4.99l36.02,13.57-5.31,25.76c-.23,1.12-1.06,2.44-1.78,2.55-3.72.57-25.09-8.98-29.29-11.43-5.91-3.46-7.62-21.1-24.12-22.86-7.32-.78-12.66,2.42-16.48,9.36h0c-1.48,2.68-24.56-3.91-29.33-3.81-2.37-7.76-8.21-11.53-16.47-12.33-8.26-.8-16.1,3.62-20.45,11.09-5.32,1.19-10.55,1.16-16.44.27,3.91-3.06,7.71-6.19,12.27-8.33ZM647.92,379.28l-29.64-79.82c-1.64-4.41,1.91-8.85,5.83-9.79,3.92-.94,7.72,1.76,9.4,6.13l13.19,34.35,16.13,43.6c-3.59,4.94-8.71,6.45-14.91,5.53ZM666.21,383.1l26.46,64.57c-4.01,5.83-7.02,10.81-12.47,15.94h0s-28.53-74.69-28.53-74.69c5.89.43,10.76-1.48,14.54-5.82ZM684.3,395.88l-34.03-87.12,22.61,4.36,26.2,52.96,18.28,35.59c-4.39,12.58-10.51,23.16-17.36,33.31l-15.7-39.1ZM718.1,346.54c15.82,21.52,12.37,17.44,5.27,39.63-6.54-11.69-12.43-22.45-16.53-34.19h0c4.96-.08,8.81-1.75,11.26-5.44ZM715.31,340.21l-11.63,6.33M726.37,333.35c4.04.36,7.32,1.64,11.66,3.45-.58,4.35-1.44,7.57-3,11.45-3.31-5.18-6.05-9.48-8.66-14.9ZM515.33,348c.3-4.67,6.76-11.87,10.54-13.88,1.63,1.71,2.89,8.85,3.54,13.53l9.72,70.34.2.68c-3.67,3.71-8.56,4.61-14.33,3.46l-9.67-74.13ZM519.73,488.44c-10.36-5.98-19.27-13.38-28.52-20.56h-.01c-1.74-1.35-1.61-3.91-1.55-5.88l1.78-63.54c4.74-7.27,9.31-13.98,15.96-20.49l12.34,110.47ZM540.97,428.08l6.17,47.45,3.02,23.32c-6.57-1.22-12.24-3.87-17.83-7.86h0s-6.05-59.45-6.05-59.45c5.18,1.74,10.1.84,14.69-3.46ZM550.02,412l-9.63-71.38c4.44-5.43,8.03-11.01,13.47-16.03l7.47,29.03,16.44,63.84,22.97,92.6c-13.85-.52-25.88-1.97-38.63-5.48,0-7.7-1.63-13.77-2.65-20.51l-9.44-72.07ZM602.21,404.28c-1.06,4.49-9.81,6.18-15.22,3.04l-22.29-90.91c.93-2.42,8.32-15.14,10.63-16.66l26.87,104.53ZM447.74,375.72l19.13-22.82c23.63-28.21,53.54-50.12,86.83-66.01,7.17-3.43,14.66-5.06,22.31-7.64-14.99,8.92-31.25,25.81-41.49,40.51-6.47-2.93-11.26-.46-15.97,2.9-17.65,12.58-12.58,17.1-15.46,34.42l-12.72,17.21c-.66.9-2.77,2.47-3.82,1.28-6.51-7.37-18.54-7.87-24.88.56h.01c-2.39,3.18-5.02,6.56-5.44,10.07l-3.64,30.36-3.9,5.57c-7.19-6.98-12.43-14.97-18.73-23.26,5.94-8.02,11.44-15.59,17.77-23.15ZM478.03,434.75l-.57,22.24-14.96-17.74.45-4.36c4.89,2.06,9.9,2.29,15.08-.14ZM463.33,428.59l3.11-41.7c4.14-7.16,8.85-7.02,14-1.21l-2.14,42.41c-5.25,2.88-10.23,2.96-14.97.51ZM251.92,328.85l21.84-31.11c3.16-4.5,7.89,5.21,10.56,8.25l-44.58,65.68h0c-4.61-1.44-7.36-5.5-10.18-10.1l22.36-32.72ZM186.62,450.18c-5-2.43-7.64-5.45-11.57-8.63,1.58-3.26,3.24-6.07,5.36-9.07l36.85-52.11c1.98-2.79,3.58-5.27,6.61-7.05,2.05,2.75,6.78,5.1,7.19,8.71.43,4.09-3.62,7.78-5.84,11.06l-38.6,57.09ZM231.93,403.98l27.11-39.92,33.9-50.57,7.06,8.42c1.63,1.95,2.98,4.15,1.69,6.8-11.27,23.15-21.57,45.93-31.28,69.74l-26.51,60.68h-.02c-.82,1.87-1.33,3.5-2.12,4.18-4.49,3.85-35.31-7.03-43-10.58l33.17-48.75ZM336.11,384.38l-16.64,65.45h0c-1.07,4.21-3.09,5.19-6.66,6.1-9.88,2.53-19.45,6.24-30,6.47l43.66-102.48c6.42,13.5,12.41,13.58,9.64,24.46ZM340.23,418.02h.01c1.73-8.77,2.89-16.62,6.01-25.48l9.19,16.54-1.85,8.99-9.46,41.04c-1.57,6.81-5.7,15.36-12.45,13.03-1.91-.66-5.53-2.61-4.69-5.82l8.94-34.24c1.31-5.01,2.29-9.79,4.3-14.06ZM294,405.2c-1.39,8.31-5.69,15.14-8.89,22.68l-16.02,37.76c-5.7.86-10.67,1.1-16.01.06l14.54-34.27,13.64-30.22h-.02c1.02-4.3,3.1-7.5,4.81-11.28l24.51-54.16c3.96,4.35,6.12,8.45,8.29,13.23-9.85,17.1-15,40.34-24.85,56.2ZM247.61,489.53c-5.99-2-12.33-2.3-17.84-7.67,4.52-1.87,9.37-.49,14.14-.14,15.81,1.17,30.78.46,46.07-2.86,8.68-1.88,17.11-2.64,25.76-5.38,4.15,7.94,11.27,11.15,19.22,10.88,18.17-.63,17.89-18.5,23.07-29.34l17.69-12.94c2.72,1.3,4,2.86,5.45,4.87,4.75,6.56,9.1,12.53,14.78,19.01-39.42,30.57-102.33,38.96-148.34,23.57ZM361.88,432.03l2.3-8.91c1.37,1.41,3.36,2.92,3.13,5.55h.01c-.35,1.58-3.65,2.45-5.44,3.36ZM519.23,527.78c-27.41-6.55-51.66-19.93-73.76-37.34-25.52-20.1-51.41-50.79-68.24-78.64l-19.23-31.82-19.64-32.55c-13.97-23.16-30.27-44.16-49.52-63.1-6.43-5.98-13-10.15-19.89-15.6,50.6,15.16,80.92,46.08,109.93,87.18l13.38,18.96c13.35,18.92,25.55,37.79,40.14,55.87,23.32,28.9,54.8,61.69,89.25,76.34,22.17,13.23,55.52,19.22,81.15,18.67-27.74,9.42-55.71,8.68-83.57,2.03ZM628.86,503.79c-4.83,3.73-10.33,3.95-16.24,5.3l-23.04-91.51c1.49,2.99,15.39.58,15.29-2.88l23.98,89.08ZM589.09,308.21c6.04-1.74,12.74-1.74,19.62-1.14l23.52,64.78,18.2,48.78,20.3,53.32h-.01c-9.21,10.12-19.26,18.17-30.64,24.9l-50.99-190.64ZM793.67,328.42c-4.89,19.74-10.37,38.22-17.91,57.19h0c-20.54,51.66-57.87,97.8-108.11,122.92-4.78,2.39-9.18,4.93-15.28,5.11,45.36-35.66,69.38-72.68,88.89-126.28,6.96-19.13,12.02-38.12,16.94-57.96l16.07-64.79c5.41-21.8,12.05-42.44,23.15-62.02,18.72-33.01,49.11-57.88,86.13-67.57-9.07,8.2-17.97,13.69-25.19,22.38-24.2,29.09-39.17,68.06-48.23,104.61l-16.46,66.41ZM814.09,317.78c9.71,4.15,19.67,7.2,29.91,9.11,5.13,14.49,18.32,26.1,34.14,22.32,4.67-1.12,7.59-5.66,9.72-9.91h.01c6.28,2.72,14.31,2.69,23.21,1.3-3.37,8.07-24.9,17.12-32.19,18.2-23.32,3.44-49.67-3.45-71.46-12.33l6.66-28.69ZM1032,234.04c-5.89,13.87-11.95,26.36-19.14,39.72-13.64,25.35-31.63,48.09-56.1,64.33v.02c-11.91,7.9-23.02,13.97-37.08,16.89,29.5-21.7,47.11-54.33,60.87-87.52l29.9-72.12c12.65-30.52,35.86-65.29,59.62-88.26,14.81-14.31,30.88-25.9,49.35-34.7,39.91-19,79.21-25.97,122.87-22.75-49.32,5.45-100.85,28.25-135.67,63.06-33.41,33.39-56.28,78.07-74.62,121.33ZM1163.8,92.63c5.94-3.65,11.71-6.54,18.15-8.15l-1.89,82.65h0c-6.55,4.92-11.95,3.31-16.39,1.31l.13-75.81ZM1180.33,177.83l-1.15,74.25c-.03,1.69-.63,3.69-1.46,4.41-.73.63-14.93-.67-14.72-14.99l.93-62.9c4.85,2.37,10.94,1.87,16.4-.77ZM1151.76,239.09h-.01c-8.21-4.4-13.28-10.45-20.41-15.32l-10.38-99.81c9.68-8.74,18.76-17.07,31.12-24.3l-.08,106.24c0,11.08.87,21.08-.24,33.19ZM1115.32,184.26l4.99,51.73h0c-5.33,3.05-14.2-2-14.92-8.49-1.34-12.1-2.65-27-4.16-40.56,3.03.48,7.8,2.9,14.1-2.69ZM1096.76,150.1c4.21-5.94,8.11-11.31,12.91-16.06l4.33,41.08c-4.3,5.5-9.65,4.4-13.92,2.71l-3.32-27.73ZM1090.56,193.28l-14.62-11.52,10.71-16.76,3.91,28.28ZM1211,292.95c-20.03-.92-38.79-5.67-58.04-12.03-35.4-11.7-67.22-31.01-96.36-54.14-3.31-5.77,8.05-22.59,11.41-28.9,7.86,4.97,13.94,10.85,20.82,16.19,3.73,2.89,5.36,5.98,5.39,10.96.06,8.84,4.62,18.92,12.75,22.2,7.38,2.98,14.86,2.09,20.29-3.01,11.09,6.25,20.1,14.57,30.09,22.12,7.32,5.53,15.26,9.42,22.94,14.2,2.81,1.75,6.58,2.02,10.09,3.69h0c11.34,5.39,22.33,6.94,33.95,8.98-4.63,1.64-8.7-.05-13.33-.26ZM1236.16,261.04c-1.12,6.51-2.45,12.16-5.49,18.9-4.91-.04-9.21-2.6-12.52-5.89,1.66-16.19,4.08-31.3,6.56-47.21l7.94-50.93c5.77,5.82,17.02,2.83,17.02,2.83l-13.51,82.3ZM1345.41,275.53l-39.71,9.12c-17.77,4.08-46.76,7.98-63.79-2.51l24-8.98h0s6.66,5.38,6.66,5.38c4.52,3.64,12.9,3.12,18.58.41,6.33-3.02,10.46-9.44,12.87-15.77,1.36-3.56,3.22-5.5,6.9-6.64l17.17-5.33c-1.02,6.56.35,13.1,6.32,16.3,9.38,5.02,21.73,3.18,28.88-5.39s12.94-17.86,21.07-26.07l24.2-2.9c-3.85,8.36-5.23,16.94.85,23.5,1.68,1.81,4.61,2.41,5.09,5.74-23.59,3-46.04,7.85-69.08,13.14ZM1417.36,247.23c-2.88-7.07,10.95-14.5,15.7-17.17,1.74,4.09,3.93,8.63,8.55,12.05l-3.27,2.25c-4.78,3.07-17.47,11.48-20.98,2.87ZM1432.24,261.26l20.04-11.94c5.53-3.3,10.72-6.71,16.82-9.89l18.57,28.4c-16.73-4.01-35.75-5.64-55.43-6.57ZM1701.38,442.27l-18.59,18.7-89.98,85.63-10.79,10.44-31.95,30.03-30.11,27.82-71.91,68.14-102.14,95.83-57.84,54.23-33.47,31.49-27.87,26.13-43.22,40.74-9.14,8.11-59.42,56.25-21.93,20.25-40.04,37.82-28.3,26.8-43.74,41.31-37.81,36.05-26.91,25.29-97.24,91.62-56.09,52.91-48.73,46.19-19.93,18.28-99.7,93.11-62.2,57.8-40.19,37.98-100.93,94.8-36.58,34.63-58.52,55.36c-22.99,21.74-50.87,47.32-75.64,66.64l-42.02,32.77c-4.73,3.68-8.37,8.19-13.46,10.49-2.43,3.36-6.61,5.77-10.05,9.08-1.15-.17-1.08-.96-.41-1.42,4.91-9.15,10.92-16.73,16.77-25.51,22.26-33.44,46.5-64.48,71.94-95.67l44.51-54.58,24.26-28.92,16.02-18.89,58.78-69.1,21.14-25.07,67.02-79.77,37.86-44.29,54.48-64.32,28.68-33.48,68.18-80.74,24.36-28.69,48.11-56.02,110.2-129.69,102.56-119.47,106.95-125.93,65.43-75.63,59.11-68.82,80.53-93.41,48.48-55.77,100.23-116.56,26.78-31.36,18.34-20.71,43.83-49.75,7.4-.86c6.83,9.69,12.8,18.4,18.37,27.63,3.18,5.29,9.26,9.62,12.07,16.2l-41.81,47.6c-25.38,28.88-60.08,78.39-69.3,115.81-2.98,12.14-2.28,25,3.22,36.08,13.14,26.48,49.3,20.49,71.2,10.11,27.93-13.24,52.82-31.29,76.03-51.55,1.4-1.22,2.16-2.26,3.62-2.38.92-.61,1.12-2.09,2.21-3.06,17.21-15.35,33-31.11,49.21-47.8,32.18-33.13,61.61-68,88.16-105.75,13.43-19.09,25.1-38.35,33.45-59.56-.1-2.03.36-4.49.9-7.03,4.95-23.17-2.73-46.91-23.88-57.43-40.78-20.29-103.89,35.53-132.13,61.87-4.61-6.32-9.68-11.89-12.51-18.45h.02c-1.35-.43-2.31-1.53-3.33-2.9l-20.48-27.57,39.01-42.86,22.43-23.61c10.46-11.01,21.59-20.24,34.41-28.61,24.67-16.12,53.2-22.86,82.67-20.33,26.12,2.24,49.01,14,67.2,30.88,12.27,11.38,23.72,22.5,30.14,40.33l5.47,15.17c15.82,43.89-3.44,103.84-35.77,138.61l-35.21,37.86-33.93,35.07-36.54,37.38ZM1683.72,890.97c6.02-48.43,28.14-89.72,57.82-127.22l12.95-16.36,11.7-14.16,6.29-7.94c12.36-15.6,24.4-30.89,34.54-48.32,8.12-13.96,11.97-29.7,16.77-45.05,11.37,7.58,12.74,12.7,26.06,6.16-.16,7.34-1.28,14.45-3.02,21.77l-25.01,6.81c-5.29,1.43-8.19,3.98-10.62,8.65-5.3,10.19-4.82,23.49,3,29.86,4.03,3.28,9.34,5.62,14.69,4.16-3.11,4.82-5.98,10.19-11.09,12.53-5.11,2.34-22.71-3.07-34.12,1.51-6.7,2.69-11.67,7.87-13.49,13.64-4.94,15.66,6.13,19.97,5.91,25.46.02-.39-3.39,9-9.19,7.74-7.66-1.66-15.11.51-21.12,5.93-8.57,7.72-8.84,21.56-1.28,30.53l-7.82,18.32c-7.5,1.46-13.89,6.78-15.9,12.77h0c-5.89,17.5,7.56,20.49,5.56,28.27-2.99,11.66-4.13,22.97-5.67,34.8-.86,6.62-10.73,17.38-3.64,30.13,6.1,10.97,6.45,2.94,8.78,27.57l-42.01,3.89c-1.85-9.68-1.72-19.06-2.46-28.81-1.09-14.44.57-28.22,2.36-42.64ZM1866.33,610.83c-4.72-2.91-6.9-8.14-7.19-15.1l7.92-7.01,12.14,11.95-12.87,10.16ZM1889.15,610.14c10.71,10.73,20.07,21.9,28.68,34.29l-47,11.34,1.62-32.42,16.7-13.21ZM1877.83,699.55l65.36-13.55c8.4,13.52,13,29.36,17.11,46.44l-74.7-5.36h0s-43.06-2.65-43.06-2.65l13.26-19.71c7.37-2.48,14.38-3.89,22.03-5.17ZM1851.22,832.05c-3.22-6.84-3.32-11.93,5.75-16.58l44.11,15.1,43.47,15.09c-2.96,6.88-7.17,10.93-11.67,17.71h0s-81.66-31.32-81.66-31.32ZM1797.85,892.05l-57.86-35.96c-3.3-2.05-5.49-5.45-5.46-8.7.03-3.48,1.45-7.28,5.11-8.8,2.39-1,5.22.1,7.5,1.44l64.3,37.61c-9.86-.02-14.21,4.94-13.59,14.42ZM1738.6,910.35l-10.16,12.6c-2.04-3.09-.68-8.49,1.38-10.47,1.69-1.63,6.1-4.2,8.78-2.13ZM1866.79,758.12l-79.51-8.26c-3.81-.39-4.84-6.54-4.16-8.96.92-3.25,3.59-6.69,7.98-6.58l78.16,5.12h.01c-6.05,4.23-5.69,12.2-2.48,18.68ZM1844.28,810.84c-7.49,3.88-8.66,9.77-5.48,17.04-18.7-5.34-35.94-12.13-54.18-18.56-9.26-3.26-18.09-6.19-27-10.11-3.96-1.75-5.6-6.79-4.83-10.53.6-2.91,4.77-7.31,8.86-6.19l82.63,28.35ZM1750.75,877.32l86.96,55.3c-11.72,5.35-23.73,8.39-35.73,12.41h0c-2.65.9-5.08-.49-6.77-2.3l-51.05-45.12c-.72-2.2-.48-26.89,6.6-20.29ZM1823.36,884.66l49.32,30.09h.02c-5.84,5.56-12.94,7.96-20.18,11.68l-42.08-27.21c-.92-8.87,2.75-14.21,12.91-14.56ZM1835.3,877.56l-78.2-46.95c1.22-5.68,3.7-10.08,6.27-15.14l35.44,12.53,48.62,17.55,35.91,13.06,40.26,14.91h0c-11,13.32-22.98,24.2-36.92,33.19-1.99.83-5.32-1.47-6.94-2.45l-44.44-26.7ZM1860.66,802.25l-40.05-14.07c-10.03-3.53-19.69-6.81-29.51-10.72,2.5-4.94,5.49-8.47,9.29-12.62l101.51,10.06,65.46,5.75c-1.91,18.91-7.66,35.56-16.15,53.1v.02s-90.55-31.52-90.55-31.52ZM1926.92,763.84c-14.97-1.35-29.65-2.14-44.15-4.56-4.36-.73-5.42-7.68-4.88-10.61.69-3.81,3.45-8.43,8.1-8.13l77.72,5.04h.01c1.87,7.82,3,14.09,3.65,21.92l-40.45-3.66ZM1839.2,627.43c-3.78-2.32-5.65-7.87-3.2-13.1,2.88-6.15,10.77-11.97,14.53-13.25.81,6.87,2.83,12.45,7.19,15.56-2.42,1.93-15.06,12.91-18.52,10.79ZM1831.39,603.89c-.25-.54-3.83-2.23-5.97-1.81-1.3-18.66-4.8-36.34-11.5-52.58,13.3,11.35,20.66,27.55,31.19,42.72-6.46,1.68-14.11,10.93-13.72,11.67ZM1413.15,1435.82c-8.4-8.34-23.69-30.93-30.71-39.49,1.5-8.4,6.3-13.3,13.13-16.05,3.89,4.26,11.01,12.64,17.56,20.58h0c1.06,11.6,1.27,22.7.02,34.96ZM1169.88,1618.14l23.73,38.97c3.11,5.14,2.09,11.19-1.98,14.11-4.36,3.12-11.07,2.31-14.22-2.77l-21.4-34.19c1.38-9.35,6.26-14.41,13.87-16.12ZM1148.46,1622.19l-18.85-30.12,1.76-37.18,31.15,51.16c-8.04,2.95-12.95,8.17-14.06,16.14ZM1162.37,1579.55l-29.47-48.7c.33-13.26,1.32-25.69,3.78-39.33,6.17,8.66,12.17,16.76,18.22,25.57l32.98,48.03,52.83,77.83h0c-14.92-1.57-29.41-3.95-44.47-7.42l-33.87-55.98ZM1139.33,1468.56c.56-5.58,4.19-22.49,7.47-27.07l69.31,103.29c-7.22.78-15.11,5.44-16.45,13.56l-60.33-89.78ZM1209.98,1572.39c.3-9.47,6.58-14.05,14.93-14.97l70.49,101.25c3.24,4.7-.88,12.53-5.59,13.83h0c-7.31,2.01-11.7-.55-15.04-5.44l-64.79-94.67ZM1250.77,1569.13l-65.35-95.45-33.69-48.73c3.89-10.49,7.79-20.16,13.64-30.49l114.72,157.43,58.4,81.07c-12.31,4.21-23.73,6.25-37.65,8.75h0s-50.07-72.58-50.07-72.58ZM1172.91,1380.73c2.57-6.95,6.57-12.94,12.13-18.31l91.12,123.4h0c-8.18,1.41-13.49,5.7-15.99,13.64l-87.26-118.73ZM1269.45,1512.68c3.75-8.79,9.42-13.26,16.62-14.26l85.73,119.63-12.86,15.09-89.49-120.46ZM1290.08,1480.81l-79.69-109.48,27.78-5.15c3.69-.69,5.24.49,7.38,3.29l48.15,62.96,98.36,128.24c2.61,3.4,4.11,4.02,1.95,8.92h0c-4.79,10.88-8.02,22.09-14.62,32.92l-89.3-121.7ZM1248.81,1336.86c4.69-3.81,12.22-4.36,16.44,1.15l40.15,52.49c10.46,13.68,21.04,26.04,31.2,40.61-8.09.53-13.54,4.15-16.33,10.84l-72.27-91.89c-3.75-3.73-3.26-9.9.81-13.2ZM1329.33,1452.67c-.32-4.62,6.76-12.77,13.78-11.18l64.18,79.71-6.17,27.09-71.79-95.62ZM1378.84,1462.2l-19.83-25.37-56.5-73.69,39.9,4.52,71.51,92.43c-.02,14.58-1.6,29.64-3.28,42.8l-31.8-40.69ZM1341.54,1334.23c1.39-1.79,4.35-4.9,7.79-4.58,3.64.34,8.81,3.43,11.31,6.55l25.85,32.26c-7.16,3.26-11.98,8.51-13.01,16.97l-32-41.85c-1.98-2.59-1.75-7.02.06-9.35ZM1274.97,1299.92c37.55-4.95,78.53.16,115.25,8.57,5.11,1.17,10.09,1.12,14.8,3.67,1.59,8.84,1.32,16.22,2.48,24.03s1.82,15.27,1.94,23.07l-16.68-4.06-22.63-29.26c-4.62-5.97-10.58-8.83-18.24-9.11-10.85-.4-23.66,5.34-24.65,16.86h0s-.94,10.96-.94,10.96l-40.08-2.84c-10.15-14.14-19.3-27.6-38.27-21.59-18.83,5.97-15.21,25.05-20.29,25.58-10.55,1.11-20.34,3.87-30.77,5.95-2,.4-1.44-4.32-.49-5.4,18.42-20.86,50.24-42.7,78.57-46.43ZM1195.5,1319c.28,0,.5.22.5.5s-.22.5-.5.5-.5-.22-.5-.5.22-.5.5-.5ZM874.89,1586.67c28.79-15.54,65.49-7.55,96.17.19,20.61,5.2,40.45,10.7,60.91,18.22l-1.15,46.75c-.03,1.26-.88,2.68-1.58,2.98-.93.4-2.28-.38-3.44-.78l-33.33-11.49c-5.75-10.49-9.62-21.68-16.75-31.53-6.31-8.72-19.79-10.69-29.24-6.19h0c-9.37,4.46-13.32,12.45-12.47,22.12l-37.87-7.11c-6.84-1.29-7.04-22.42-29.05-21.13-4.2.25-8.06,2.29-13.05,3.23-.43-4.4,16.34-12.83,20.85-15.26ZM1007.52,1791.42c2.85,6.08-11.97,37.63-16.76,44.9l-15.86-33.36-29.82-67.27-41.63-92.27c13.49.89,25.53,3.57,38.04,7.21l66.03,140.79ZM947.26,1623.18c.54-3.9,4.32-6.47,7.29-7.3,3.39-.94,7.06-.96,9.64,1.92,3.2,3.58,22.16,49.4,24.42,53.64-3.93,6.3-10.5,7.82-18.98,5.88l-19.52-42.28c-1.7-3.68-3.42-7.74-2.85-11.86ZM975.28,1692.08c7.7,2.6,13.93-.09,19.17-6.55,7.78,16.8,19.97,35.39,26.91,52.55-1.13,11.65-3.14,22.79-7.5,34.25l-38.57-80.25ZM1005.52,1670.48c8.51.29,15.38,4.6,23.22,8.33-1.17,11.12-1.25,20.89-3.44,31.33l-19.78-39.66ZM906.31,1734.79l-22.6-49.61-17.94-41.16c-4.43-10.16-13.53-24.21-2.03-30.11,3.9-2,9.94-1.79,12.43,2.91,9.06,17.07,15.83,34.67,23.81,52.24l15.88,35c3.1,6.83,6.02,13.47,8.79,21.13h0c1.63,4.49-3.37,8.73-5.97,10.62s-10.72,2.59-12.37-1.02ZM912.37,1750.54c8.42-.34,15.11-2.87,19.46-9.85l49.43,110.39c-3.82,7.04-8.05,12.74-15.16,18.94h-.01c-4.25-5.6-6.34-11.14-9-17.23l-44.72-102.25ZM949.27,1889.38l-4.88-.11c1.59-.07,3.2-.05,4.88.11ZM1108.57,1576.81c-.99,33.03-.76,65-3.78,97.97-3.05,33.23-6.88,65.61-16.31,97.56-10,33.91-26.04,65.18-50.37,90.6-12.87,13.44-27.63,23.58-43.67,32.33h-.01c-7.61,4.15-37.54,16.1-48.21,16.44,53.37-30.87,82.18-91.38,93.33-152.09,3.69-20.09,6.49-39.33,8.42-59.71l2.65-27.96,3.93-95.92c1.93-47.02,6.1-89.99,23.12-134.05,9.09-23.52,21.86-43.85,38.05-63.19,14.68-17.54,31.62-32,51.09-44.09,8.95-5.55,16.69-12.29,28.25-14.77-75.5,66.58-83.67,162.59-86.49,256.88ZM1280.76,1697.74c-15.96,5.24-35,9.15-51.81,8.21-21.77-1.22-42.75-3.89-63.99-7.8-13.72-2.53-26.19-7.41-39.53-11.28.12-4.41.05-7.68.48-11.44l1.47-12.81,1.6-24.82c5.85,1.03,12.92,3.14,16.46,7.59,7.21,9.08,12.3,19.01,18.6,28.62,6.68,10.17,17.5,15.59,30,11.3,9.8-3.37,15.6-14.23,15.37-24.65l20.98,2.7c9.33,1.21,17.9,1.78,27.24,2.96,3.14,5.72,6.03,11.52,11.41,15.68,7.47,5.77,18.02,6.07,27.02,1.74,7.42-3.57,13.58-11.46,14.23-21.87h-.03s35.76-8.1,35.76-8.1c-16.51,20.81-40.47,35.83-65.26,43.97ZM1353.5,1674.63c-.35,0-.63-.28-.63-.63s.28-.63.63-.63.63.28.63.63-.28.63-.63.63ZM1483.33,1466.11c-7.49,68.93-27.99,119.33-78.08,168.67-15.92,14.84-31.24,28.09-50.89,38.17,13.67-12.94,25.04-26.84,34.87-42.84,4.05-6.6,8.3-12.25,11.34-19.57,15.57-30.54,24.78-62.94,30.03-96.92,8.42-54.49,4.54-103.9-.74-158.54l-6.61-68.38c-1.96-20.24-3.22-46.31-2.64-66.74,1.92-67.4,20.51-121.68,70.41-167.92,4.93-4.57,8.83-9.01,15.49-12.04-1.73,3.8-3.35,7.33-5.54,10.89-22.93,37.31-30.32,84.87-31.97,128.09-.48,12.7-1.11,24.36-.12,37,1.02,13.1.82,25.95,2.22,38.78l3.37,30.86,5.03,53.14c1.55,16.33,3.56,31.74,4.7,48.28,1.84,26.71,2.02,52.44-.87,79.07ZM1656.96,1084.06c-1.65,6.13-8.79,10.84-15.7,11.05l-34.36-32.54,25.05-3.42,25.01,24.91ZM1649.83,1057.06c7.12-2.42,16.25-3.81,26.79-3.64l9.48,39.75-22.91-22.42-13.36-13.69ZM1625.19,1099.89l76.02,74.32.62,38.53-62.18-60.28-50.52-49.51-30.21-29.16c11.24-2.98,22.07-6.33,33.49-7.62l32.78,33.72ZM1670.73,1231.15l-10.49-10.38c-5.61-5.54-10.43-11.42-16.8-16.21l-27.3-27.82c8.92-2.5,12.83-8.34,12.62-16.93l25.27,25.22,47.84,47.08c.51,9-.35,17.07-2.2,26.12-5.41-4.05-9.53-8.27-14.16-12.76h0l-14.78-14.32ZM1619.83,1152.67c1.74,7.26-2.58,13.64-12.67,15l-79.92-79.59c5.43-4.25,11.24-7,17.8-8.43l74.78,73.02ZM1531.31,1111.73l30.74,30.21,34.65,34.44,72.43,71.38c9.01,8.88,17.49,16.98,26.02,26.4-6.72,9.26-17.02,16.16-27.82,21.73v.02s-29.12-30.98-29.12-30.98l-22.57-24.51-9.15-9.96-19.78-21.13-30.96-33.21-55.62-59.05c-1.05-1.11-2.62-3.18-1.71-4.64,4.3-6.88,10.08-12.48,16.68-17.53l16.21,16.83ZM1581.67,1224.11s75.81,82.17,76.64,84.9c2.47,8.2-6.64,15.82-13.8,12.54s-23.14-23.9-23.14-23.9c-3.71-3.83-6.87-7.61-10.5-11.55l-25.85-28.04c-5.79-6.28-12.44-12.19-17.9-19.29,5.35-.64,14.78-6.67,14.56-14.67ZM1558.33,1228.33c-4.13-1.53-66.92-71.75-66.92-71.75-.51-8.81,1.65-17.81,3.6-26.94,9.55,11.94,19.44,22.15,29.53,32.82l43.06,45.94c4.08,4.37,7.1,10.36,1.66,15.51v-.02c-3.07,2.9-6.8,5.97-10.93,4.44ZM1491.19,1175.87l35.03,37.72,28.09,31.17,8.39,9.02,55.18,59.28c-13.51,4.05-26.34,3.88-40.11,2.72h0c-4.1-7.08-9-11.94-13.9-17.91l-22.43-27.28-32.45-39.48c-6.73-8.19-13.12-15.46-18.88-24.42l1.08-30.82ZM1581.14,1345.94c-.69,7.11-4.64,10.06-11.79,6.8s-48.26-55.61-48.26-55.61c5.91-.3,11.59-2.25,16.29-9.55,0,0,44.45,51.26,43.75,58.37ZM1490.87,1230.92l39.13,48.19c.7,4.53-10.67,11.78-15.56,9.67-1.3-.56-16.78-16.94-20.19-23.65-5.2-10.21-2.82-22.65-3.38-34.21ZM1497.13,1289.76l16.06,20.53-15.42-1.66c-.09-6.45-1.34-11.92-.64-18.87ZM1652.09,1355.1c-8.72,8.06-17.51,14.55-29.14,18.1-37.45,11.44-62.03,10.11-100.78,6.6-6.08-.55-11.6-2.29-17.74-3.18l-4.57-46.39,15.52,2.16h0c18.08,2.32,18.83,5.88,23.81,10.56,5.83,5.48,10.13,11.52,15.72,17.38,6.61,6.94,18.19,8.31,27.17,4.47,10.28-4.4,14.74-15.74,12.97-26.96,12.57-.81,24.03-2.17,35.86-5.01,3.03-.73,5.99.02,7.85,2.37,6.02,1.97,12.45,3.77,18.53,1.9,18.11-5.57,10.96-22.98,24.77-22.3-6.54,16.43-17.61,28.89-29.97,40.3ZM1756.31,1243.22c-7.53,22.18-17.63,42.37-32.21,60.76-9.59,13.73-20.69,25.5-34.9,36.24,4.08-8.39,8.96-15.45,12.4-24.01,5.19-12.87,11.6-24.59,14.87-38.04,5.51-22.69,8.39-44.68,7.72-68.15-.46-16.15-.2-31.16-3.1-47.23-5.55-37.45-13.14-73.7-23.42-111.08l48.98-5.92c8.67,29.98,14.48,59.05,18.22,89.29,3.6,36.05,3.07,73.87-8.56,108.14ZM1910.27,959.4c-66.64,58.16-145.97,65.01-230.17,72.94-31.95,3.01-62.68,6.74-94.08,12.66-16.5,3.11-31.65,7.98-47.39,13.68-8.75,3.17-16.59,7.72-24.42,12.5-.62.39-1.07.93-1.62.68-.58-.26-.36-.89-.09-1.62,4.43-11.74,11.35-21.83,18.16-32.35,2.28-3.51,5.49-5.82,8.43-9.25h-.04c8.39-9.8,20.72-18.34,31.95-22.9,17.89-7.27,36.03-12.23,55.32-15.54,23.87-4.09,47.4-5.35,71.52-8.07l23.53-2.66,30.63-3.49c30.63-3.49,59.41-10.84,88.16-21.83,30.45-11.64,57.47-27.56,81.78-49.35,15.9-14.25,28.76-30.39,40.26-48.57,2.75-4.34,3.97-9.36,7.97-13.19-6.19,45.5-25.59,86.42-59.9,116.36ZM1987.86,839.24c.13-1.16.66-1.6,1.23-.55.13,2.58-1.07,2.87-1.23.55ZM1997.19,806.55l-7.53,30.63c-1.71-3.43.02-5.89.64-9.19,8.45-102.25-35.13-190.69-112.25-256.02-27.46-23.26-57.77-41.74-89.49-58.51l-28.12-14.87-40.31-20.48c-.97-.5-2.09-1.8-1.96-2.53.15-.82,1.12-1.81,1.93-2.62l30.48-30.47c1.44-1.44,4.02-.58,5.55.23l57.73,30.33c14.45,7.59,27.51,16.1,41.19,24.87,11.65,7.47,22.02,15.56,32.93,24.14,16.68,13.12,31,27.9,45.22,43.8,19.65,21.97,34.42,46.91,46.03,73.92,20.16,46.9,29.9,118.15,17.95,166.76h.01ZM1824.11,678.78l51.33-11.78c-3.31,7.11-3.17,13.3.95,18.41l-50.3,9.76c-7.78-3.44-7.49-11.73-1.99-16.39ZM1889.9,665.16l35.78-8.79,11.4,17.62-45.72,9.27s-6.03-4.14-5.47-8.7,1.35-6.84,4.01-9.4Z"/>
        <path class="st10" d="M164.97,1875.94c.15-.98-.25-2.88,1.11-3.78,3.98-2.61,6.26-6.33,8.98-9.95,3.39-4.5,7.21-8.09,11.01-12.13l32.89-35.03,52.71-55.33,26.34-27.71,27.42-28.59,30.58-32.43,22.19-23.7,36.69-39.39,27.32-28.69c7.01-7.36,13.19-14.26,20.34-21.7l79.87-83.11,91.19-94.65,23.92-24.3,58.67-61.25,49.76-52.19,31.23-32.86,54.99-57.07,70.5-73.44,69.3-72.69c1.49-1.56,1.55-3.25,3.32-4.74,6.13-5.13,11.56-10.99,17.19-16.76l22.21-22.77,46.17-47.7,31.64-33.51,24.93-26.12,65.13-67.72,16.58-17.49,30.47-31.58,34-34.94,26.49-27.54,30.27-30.83c-2.29-3.87-2.08-7.27-2.01-11.29.61-32.01,15.85-69.95,29.97-98.48,7.43-15.01,28.41-52.23,37.59-65.44l28.86-41.51c27.1-38.98,58.55-74.34,90.07-109.35,3.19,5.29,9.26,9.62,12.07,16.2l-41.81,47.6c-25.37,28.88-60.08,78.39-69.3,115.81-2.99,12.13-2.28,24.99,3.22,36.08,13.14,26.49,49.29,20.49,71.2,10.11,27.93-13.23,52.82-31.28,76.03-51.55,1.39-1.22,2.16-2.25,3.62-2.38.08,2.76-1.23,5.29-3.45,7.37l-16.47,15.44c-45.67,42.81-91.2,76.83-146.29,106.82-15.88,8.64-51.96,25.76-69.73,25.57,18.28,4.66,36.07,1.78,53.97-5.37,26.01-10.39,50.11-23.77,73.2-39.77,13.19-9.13,25.75-17.88,38.2-27.84l40.05-32.02c21.61-17.27,41.05-35.77,60.64-55.32l39.54-39.46c30.88-30.82,80.99-89.63,104.94-125.76,11.2-16.9,20.48-38.1,24.77-57.28,1.94-8.65,4.07-36.79-1.21-44.86-1.35,4.78-1.09,9.04-1.55,13.65-1.41,14.3-7.47,26.64-17.31,36.99-2.08,2.19-3.36,5.19-6.27,5.66-.09-2.03.36-4.49.9-7.03,4.95-23.16-2.73-46.9-23.88-57.43-40.78-20.29-103.89,35.53-132.13,61.87-4.6-6.33-9.68-11.9-12.51-18.45l25.2-22.28c16.72-14.79,34.07-27.62,53.51-38.74,28.88-17.51,67.42-25.51,97.02-4.47,16.56-16.16,32.04-32.28,46.2-49.51,12.27,11.39,23.72,22.5,30.14,40.33l5.47,15.17c15.81,43.89-3.44,103.83-35.77,138.61l-35.21,37.86-33.93,35.07-36.54,37.38-18.59,18.7-89.98,85.63-10.79,10.44-31.95,30.03-30.11,27.82-71.91,68.14-102.14,95.83-57.84,54.23-33.47,31.49-27.87,26.13-43.22,40.74-9.14,8.11-59.42,56.25-21.93,20.25-40.04,37.82-28.3,26.8-43.74,41.31-37.81,36.05-26.91,25.29-97.24,91.62-56.09,52.91-48.73,46.19-19.93,18.28-99.7,93.11-62.2,57.8-40.19,37.98-100.93,94.8-36.58,34.63-58.52,55.36c-22.99,21.74-50.87,47.32-75.64,66.64l-42.02,32.77c-4.73,3.69-8.37,8.19-13.46,10.49l-.03.05Z"/>
        <path class="st9" d="M1807.21,137.86c-14.16,17.22-29.64,33.35-46.2,49.51-29.59-21.04-68.14-13.04-97.02,4.47-19.44,11.11-36.78,23.95-53.51,38.74l-25.2,22.28c-1.35-.42-2.31-1.53-3.33-2.9l-20.48-27.57,39.01-42.86,22.43-23.61c10.47-11.01,21.6-20.24,34.41-28.61,24.67-16.12,53.2-22.86,82.67-20.33,26.11,2.24,49,14,67.2,30.88h.02ZM1620.81,195.68c14.34-10.79,28.57-21.47,44.43-30.07l28.78-15.62c15.58-8.45,30.85-15.5,48.04-22.55-6.14-2.52-11.33-1.57-16.97-2.14-19.25-1.95-37.99,4.88-54.37,15.1-9.66,6.03-18.68,11.67-26.43,19.82l-15.12,15.91c-3.33,3.51-6.15,6.98-9.33,10.62-7.02,8.06-14.44,15.37-19.68,24.53,8.48-4.53,13.79-10.46,20.63-15.61h.02ZM1600,212.5c0-.28-.22-.5-.5-.5s-.5.22-.5.5.22.5.5.5.5-.22.5-.5Z"/>
        <path class="st9" d="M1579.88,490.07c.91-.61,1.12-2.09,2.21-3.06,17.21-15.35,33-31.11,49.21-47.8,32.18-33.13,61.61-68.01,88.16-105.75,13.43-19.09,25.11-38.35,33.45-59.56,2.92-.47,4.19-3.47,6.27-5.66,9.84-10.35,15.9-22.7,17.31-36.99.46-4.6.2-8.87,1.55-13.65,5.27,8.07,3.14,36.21,1.21,44.86-4.29,19.18-13.56,40.38-24.77,57.28-23.95,36.13-74.06,94.94-104.94,125.76l-39.54,39.46c-19.59,19.55-39.04,38.05-60.64,55.32l-40.05,32.02c-12.45,9.95-25.01,18.7-38.2,27.84-23.1,16-47.2,29.38-73.2,39.77-17.9,7.15-35.7,10.03-53.97,5.37,17.77.19,53.85-16.93,69.73-25.57,55.09-29.99,100.62-64.01,146.29-106.82l16.47-15.44c2.23-2.09,3.54-4.62,3.45-7.37h0Z"/>
        <path class="st9" d="M1506.48,290.56c6.78,9.62,12.81,18.44,18.35,27.63l.03-.04c-31.52,35.01-62.98,70.37-90.07,109.35l-28.86,41.51c-9.19,13.21-30.16,50.44-37.59,65.44-14.12,28.53-29.37,66.47-29.97,98.48-.08,4.01-.28,7.41,2.01,11.29l-30.27,30.83-26.49,27.54-34,34.94-30.47,31.58-16.58,17.49-65.13,67.72-24.93,26.12-31.64,33.51-46.17,47.7-22.21,22.77c-5.63,5.77-11.06,11.63-17.19,16.76-1.77,1.49-1.83,3.17-3.32,4.74l-69.3,72.69-70.5,73.44-54.99,57.07-31.23,32.86-49.76,52.19-58.67,61.25-23.92,24.3-91.19,94.65-79.87,83.11c-7.15,7.44-13.33,14.34-20.34,21.7l-27.32,28.69-36.69,39.39-22.19,23.7-30.58,32.43-27.42,28.59-26.34,27.71-52.71,55.33-32.89,35.03c-3.79,4.04-7.62,7.64-11.01,12.13-2.72,3.62-5,7.33-8.98,9.95-1.36.89-.96,2.8-1.11,3.78-2.43,3.36-6.61,5.77-10.05,9.08-1.15-.18-1.08-.96-.41-1.42,4.92-9.15,10.93-16.73,16.77-25.51,22.26-33.44,46.51-64.48,71.94-95.67l44.51-54.58,24.26-28.92,16.02-18.89,58.78-69.1,21.14-25.07,67.02-79.77,37.86-44.29,54.48-64.32,28.68-33.48,68.18-80.74,24.36-28.69,48.11-56.02,110.2-129.69,102.56-119.47,106.95-125.93,65.43-75.63,59.11-68.82,80.53-93.41,48.48-55.77,100.23-116.56,26.78-31.36,18.34-20.71,43.85-49.75,7.4-.86ZM1373,473.46c0-.28-.22-.5-.5-.5s-.5.22-.5.5.22.5.5.5.5-.22.5-.5ZM337.78,1671.28l30.78-33.95,30.66-33.13,11.84-13.27,23.92-26.01,19.71-21.44,27.68-31.09,23.72-25.39,27.18-29.84,48.53-53.2,33.45-36.82,58.38-64.44,23.95-26.14,18.04-19.95,20.17-22.07,84.64-94.02,22.62-25.49,24.8-27.33,58.33-64.5,45.42-49.56,35.89-39.11,22.85-25.11,11.84-13.28,11.45-13.59,41.9-46.03,32.04-35.02,30.53-33.36,15.43-17.71,22.8-25.23,71.33-79.51c10.08-11.23,17.92-23.07,27.2-34.87,8.08-10.28,14.17-21.27,20.17-32.94l22.8-44.3c10.46-20.32,22.21-38.98,34.18-58.77-6.1,4.01-9.3,10.05-14.42,14.71-5.39,4.9-9.48,10.49-14.3,15.93l-23.28,26.27-40.81,46.55-85.66,99.14c-5.62,6.5-11.44,11.92-16.46,18.62s-9.95,11.76-15.21,17.8l-29.85,34.33-13.45,15.46-16.92,18.93-24.2,27.85-26.75,31.34-49.88,57.97-40.52,47.48-21.84,25.24-30.56,35.35-15.26,17.94-38.25,43.69-86.04,99.69-20.42,23.8-20.98,24.03-22.72,26.39-101.59,117.26-49.57,57.44-43.57,50.37-27.73,32.33-54.37,61.52-25.5,29.6-29.61,34.38-32.32,38.72c-2.38,2.85-4.47,5.45-6.66,8.34-1.97,2.6-5.38,4.11-6.29,7.95,4.45-2.06,7.16-5.96,10.78-9.95h-.02ZM327,1682.46c0-.28-.22-.5-.5-.5s-.5.22-.5.5.22.5.5.5.5-.22.5-.5ZM323.96,1685.62c-.13-.97-1.46-1.04-2.16.05-.76.59-1.13,1.18-.81,1.78.29.55.91.74,1.51.52.65-.23,0-1.24,1.45-2.35h0ZM319.73,1687.61l-5.06,5.94,1.32,1.12,5.06-5.94-1.32-1.12ZM314,1695.46c0-.28-.22-.5-.5-.5s-.5.22-.5.5.22.5.5.5.5-.22.5-.5ZM313.01,1697.48c-.26-.53-.78-.67-1.48-.54,1.49-.26-3.12,2.24-2.53,3.51.26.55.87.72,1.49.53-1.77.55,3.13-2.27,2.53-3.5h0Z"/>
        <path class="st6" d="M337.78,1671.32c-3.62,3.99-6.33,7.9-10.78,9.95.91-3.85,4.32-5.35,6.29-7.95,2.19-2.89,4.29-5.5,6.66-8.34l32.32-38.72,29.61-34.38,25.5-29.6,54.37-61.52,27.73-32.33,43.57-50.37,49.57-57.44,101.59-117.26,22.72-26.39,20.98-24.03,20.42-23.8,86.04-99.69,38.25-43.69,15.26-17.94,30.56-35.35,21.84-25.24,40.52-47.48,49.88-57.97,26.75-31.34,24.2-27.85,16.92-18.93,13.45-15.46,29.85-34.33c5.26-6.04,10.39-11.37,15.21-17.8s10.84-12.12,16.46-18.62l85.66-99.14,40.81-46.55,23.28-26.27c4.82-5.44,8.92-11.04,14.3-15.93s8.32-10.7,14.42-14.71c-11.97,19.79-23.72,38.44-34.18,58.77l-22.8,44.3c-6,11.67-12.09,22.66-20.17,32.94-9.28,11.8-17.12,23.64-27.2,34.87l-71.33,79.51-22.8,25.23-15.43,17.71-30.53,33.36-32.04,35.02-41.9,46.03-11.45,13.59-11.84,13.28-22.85,25.11-35.89,39.11-45.42,49.56-58.33,64.5-24.8,27.33-22.62,25.49-84.64,94.02-20.17,22.07-18.04,19.95-23.95,26.14-58.38,64.44-33.45,36.82-48.53,53.2-27.18,29.84-23.72,25.39-27.68,31.09-19.71,21.44-23.92,26.01-11.84,13.27-30.66,33.13-30.78,33.95h.02Z"/>
        <rect class="st6" x="314.02" y="1690.19" width="7.81" height="1.73" transform="translate(-1175.78 836.9) rotate(-49.59)"/>
        <path class="st6" d="M323.96,1685.66c-1.46,1.11-.8,2.12-1.45,2.35-.6.21-1.22.02-1.51-.52-.32-.6.05-1.19.81-1.78.7-1.08,2.03-1.02,2.16-.05h0Z"/>
        <path class="st6" d="M313.01,1697.52c.6,1.23-4.3,4.05-2.53,3.5-.62.19-1.23.02-1.49-.53-.59-1.27,4.02-3.77,2.53-3.51.7-.12,1.22.01,1.48.54h0Z"/>
        <circle class="st6" cx="1372.5" cy="473.5" r=".5"/>
        <circle class="st6" cx="313.5" cy="1695.5" r=".5"/>
        <circle class="st6" cx="326.5" cy="1682.5" r=".5"/>
        <path class="st6" d="M1620.81,195.68c-6.85,5.15-12.15,11.08-20.63,15.61,5.24-9.16,12.66-16.47,19.68-24.53,3.17-3.65,5.99-7.12,9.33-10.62l15.12-15.91c7.74-8.15,16.77-13.8,26.43-19.82,16.38-10.22,35.12-17.05,54.37-15.1,5.64.57,10.83-.38,16.97,2.14-17.19,7.05-32.46,14.1-48.04,22.55l-28.78,15.62c-15.86,8.6-30.09,19.29-44.43,30.07h-.02Z"/>
        <circle class="st6" cx="1599.5" cy="212.5" r=".5"/>
        <g>
          <path class="st5" d="M1600.16,309.72c14.61,19.88,30.3,39.77,47.15,58.42-9.01,12.43-19.1,22.53-30.62,33.73-28.2-27.12-52.4-61.13-74.38-93.19l-31.3-45.64-28.88-38.38c-34.09-45.3-73.03-86.12-119.36-119.13-10.04-7.16-19.95-12.81-30.51-18.97-19.27-11.23-39.19-19.04-60.68-25.34,17.99-.79,34.75,1.66,51.58,5.84,15.88,3.94,30.08,10.15,44.87,16.6,27.72,12.1,62.23,33.35,85.18,53.08l18.4,15.83c24.41,20.99,45.9,44.69,65.06,70.76l63.47,86.38h.02Z"/>
          <path class="st5" d="M775.76,385.61c-20.53,51.67-57.87,97.8-108.11,122.93-4.78,2.39-9.19,4.92-15.28,5.11,45.37-35.66,69.39-72.68,88.89-126.28,6.96-19.13,12.02-38.12,16.94-57.96l16.07-64.79c5.41-21.81,12.05-42.45,23.15-62.02,18.72-33.01,49.11-57.88,86.13-67.57-9.06,8.2-17.96,13.7-25.19,22.38-24.19,29.1-39.17,68.06-48.23,104.61l-16.46,66.41c-4.89,19.74-10.38,38.22-17.91,57.19h0Z"/>
          <path class="st5" d="M956.76,338.09c-11.9,7.9-23.02,13.98-37.07,16.89,29.49-21.7,47.11-54.33,60.87-87.52l29.9-72.12c12.65-30.52,35.86-65.29,59.62-88.26,14.81-14.32,30.87-25.91,49.35-34.7,39.9-19,79.21-25.97,122.87-22.75-49.32,5.46-100.85,28.25-135.67,63.06-33.41,33.4-56.28,78.08-74.62,121.33-5.88,13.87-11.95,26.36-19.14,39.72-13.64,25.36-31.63,48.09-56.1,64.33v.02Z"/>
          <path class="st5" d="M602.82,525.75c-27.75,9.43-55.74,8.69-83.6,2.04-27.42-6.54-51.66-19.93-73.76-37.34-25.52-20.1-51.41-50.79-68.24-78.64l-19.23-31.82-19.64-32.55c-13.97-23.16-30.27-44.16-49.52-63.1-6.43-5.98-13-10.15-19.89-15.6,50.6,15.16,80.93,46.07,109.93,87.18l13.38,18.96c13.35,18.92,25.55,37.79,40.14,55.87,23.32,28.89,54.81,61.69,89.25,76.34,22.19,13.23,55.54,19.22,81.17,18.67h0Z"/>
          <path class="st6" d="M1236.57,74.3l-1.06,10.2"/>
          <path class="st7" d="M461.67,376.13c-2.39,3.18-5.02,6.56-5.44,10.07l-3.64,30.36-3.9,5.57c-7.19-6.98-12.43-14.96-18.73-23.26,5.94-8.03,11.44-15.6,17.77-23.15l19.13-22.82c23.64-28.21,53.55-50.11,86.83-66.01,7.17-3.42,14.67-5.06,22.31-7.64-14.98,8.92-31.25,25.82-41.49,40.51-6.47-2.93-11.26-.46-15.97,2.9-17.65,12.58-12.58,17.1-15.46,34.42l-12.72,17.21c-.66.9-2.77,2.47-3.82,1.28-6.5-7.37-18.54-7.87-24.88.56h0Z"/>
          <path class="st7" d="M672.47,294.48c-1.48,2.69-24.57-3.91-29.33-3.81-2.37-7.76-8.56-11.57-16.47-12.33s-16.1,3.62-20.45,11.09c-5.31,1.18-10.55,1.16-16.44.27,3.91-3.06,7.71-6.19,12.27-8.33l8.79-4.12c4.03-1.89,8.31-3.39,12.69-4.71,24.92-7.52,67.07-3.61,89.89,4.99l36.02,13.57-5.31,25.76c-.23,1.12-1.06,2.44-1.78,2.55-3.72.57-25.09-8.98-29.29-11.43-5.91-3.45-7.62-21.1-24.12-22.86-7.32-.78-12.66,2.42-16.48,9.36h0Z"/>
          <path class="st7" d="M1190.38,284.23c11.34,5.39,22.33,6.94,33.95,8.98-4.64,1.65-8.7-.04-13.33-.26-20.03-.93-38.79-5.67-58.04-12.03-35.4-11.7-67.23-31.01-96.36-54.14-3.31-5.77,8.05-22.59,11.41-28.9,7.85,4.98,13.94,10.85,20.82,16.19,3.73,2.89,5.35,5.98,5.39,10.96.06,8.84,4.61,18.92,12.75,22.2,7.39,2.98,14.86,2.09,20.29-3.01,11.09,6.25,20.11,14.58,30.09,22.12,7.32,5.53,15.26,9.41,22.94,14.2,2.81,1.75,6.58,2.02,10.09,3.69h0Z"/>
          <path class="st7" d="M229.77,481.86c4.52-1.88,9.38-.5,14.15-.15,15.8,1.17,30.77.46,46.07-2.86,8.68-1.89,17.12-2.64,25.76-5.38,4.15,7.94,11.28,11.15,19.22,10.88,18.17-.62,17.89-18.5,23.07-29.34l17.69-12.94c2.72,1.3,4,2.86,5.45,4.87,4.74,6.56,9.1,12.54,14.78,19.01-39.43,30.57-102.33,38.96-148.34,23.57-5.98-2-12.32-2.3-17.84-7.67h-.01Z"/>
          <path class="st7" d="M1265.91,273.16l6.66,5.37c4.51,3.64,12.89,3.12,18.58.41,6.33-3.02,10.46-9.43,12.87-15.77,1.36-3.56,3.21-5.5,6.9-6.64l17.17-5.33c-1.02,6.56.35,13.1,6.32,16.3,9.38,5.03,21.71,3.2,28.88-5.39s12.94-17.86,21.07-26.07l24.2-2.9c-3.85,8.36-5.24,16.93.85,23.5,1.68,1.81,4.61,2.41,5.09,5.74-23.58,3.01-46.03,7.85-69.08,13.14l-39.71,9.12c-17.78,4.08-46.76,7.98-63.79-2.51l24-8.98h0Z"/>
          <path class="st5" d="M186.62,450.18c-5-2.43-7.65-5.45-11.58-8.63,1.59-3.26,3.24-6.07,5.36-9.07l36.85-52.11c1.97-2.79,3.58-5.27,6.61-7.05,2.05,2.75,6.78,5.1,7.19,8.71.43,4.09-3.62,7.77-5.84,11.06l-38.6,57.09h0Z"/>
          <path class="st9" d="M239.74,371.67c-4.61-1.43-7.35-5.5-10.18-10.1l22.36-32.72,21.84-31.11c3.16-4.5,7.89,5.21,10.56,8.25l-44.58,65.68h0Z"/>
          <path class="st9" d="M294.01,405.2c-1.39,8.32-5.69,15.15-8.89,22.68l-16.02,37.76c-5.7.86-10.67,1.1-16.01.06l14.54-34.27,13.64-30.22c3.84,2.45,8.61,2.2,12.75,3.98h-.01Z"/>
          <path class="st5" d="M294.01,405.2c-4.14-1.79-8.91-1.53-12.75-3.98,1.01-4.31,3.09-7.51,4.81-11.29l24.51-54.16c3.96,4.35,6.12,8.44,8.29,13.23-9.85,17.1-15,40.34-24.85,56.2h-.01Z"/>
          <path class="st5" d="M353.58,418.07l-9.46,41.04c-1.57,6.81-5.7,15.36-12.45,13.03-1.91-.66-5.53-2.62-4.69-5.82l8.94-34.24c1.31-5.01,2.29-9.78,4.3-14.06l13.35.04h.01Z"/>
          <path class="st5" d="M715.31,341.44c-2.34,2.74-5.2,5.4-11.4,4.88-5.64-9.19-19.79-36.04-22.26-44.42-.83-2.8,3.26-5.48,5.28-5.48s5.89.92,7.28,3.56"/>
          <path class="st5" d="M956.73,278.93l-11.87-26.03c-3.44-7.53-8.06-14.64-9.6-23.1-.71-3.93,6.79-7.68,10.23-5.94,6.34,12.27,13.31,25.52,17.46,39.25,1.71,5.67-4.65,11.58-6.22,15.83h0Z"/>
          <path class="st9" d="M718.11,346.54c15.82,21.52,12.37,17.44,5.27,39.63-6.55-11.69-12.43-22.45-16.53-34.19,4.39-.23,9.04-1.49,11.27-5.44h-.01Z"/>
          <path class="st9" d="M353.58,418.07l-13.35-.04c1.72-8.77,2.89-16.62,6.01-25.49l9.19,16.54-1.85,8.99Z"/>
        </g>
        <g>
          <path class="st7" d="M890.82,1888.1c13.01,1.78,25.87,3.06,39.09,2.6,6.53-.22,13.26-2.12,19.36-1.33-25.69,20.71-31.46,23.19-59.02,23.63-6.54.22-10.19-2.29-10.9-3.01h0c2.45-7.95,2.6-15.82,5.41-22.9"/>
          <path class="st5" d="M994.44,1895.27c-7.61,4.15-37.54,16.1-48.21,16.44,53.37-30.86,82.18-91.38,93.33-152.09,3.69-20.09,6.49-39.33,8.42-59.71l2.65-27.96,3.93-95.92c1.93-47.02,6.1-89.99,23.12-134.05,9.09-23.52,21.86-43.85,38.05-63.19,14.68-17.54,31.62-32,51.09-44.09,8.95-5.56,16.69-12.3,28.25-14.77-75.5,66.58-83.67,162.59-86.49,256.88-.99,33.03-.76,65-3.78,97.97-3.05,33.23-6.88,65.61-16.31,97.56-10.01,33.91-26.05,65.18-50.37,90.6-12.87,13.44-27.63,23.58-43.67,32.33h-.01Z"/>
          <path class="st5" d="M1405.25,1634.78c-15.92,14.84-31.24,28.09-50.89,38.17,13.67-12.94,25.04-26.85,34.87-42.84,4.05-6.6,8.3-12.26,11.34-19.57,15.56-30.54,24.77-62.94,30.03-96.92,8.42-54.49,4.54-103.9-.74-158.54l-6.61-68.38c-1.96-20.24-3.22-46.31-2.64-66.74,1.92-67.4,20.51-121.68,70.41-167.92,4.93-4.57,8.83-9.01,15.49-12.04-1.73,3.8-3.35,7.33-5.54,10.89-22.93,37.32-30.32,84.87-31.97,128.09-.48,12.7-1.11,24.36-.12,37,1.02,13.1.82,25.95,2.22,38.78l3.37,30.86,5.03,53.14c1.55,16.33,3.56,31.75,4.7,48.28,1.84,26.71,2.02,52.45-.87,79.07-7.49,68.93-27.99,119.33-78.08,168.67Z"/>
          <path class="st5" d="M1997.18,806.54l-7.53,30.63c-1.72-3.43.01-5.89.64-9.19,8.45-102.25-35.12-190.69-112.25-256.02-27.46-23.26-57.77-41.74-89.49-58.51l-28.12-14.87-40.31-20.48c-.97-.49-2.08-1.8-1.96-2.53.15-.83,1.12-1.82,1.93-2.62l30.48-30.47c1.44-1.44,4.02-.57,5.55.23l57.73,30.33c14.46,7.59,27.52,16.1,41.19,24.87,11.65,7.47,22.02,15.57,32.93,24.14,16.68,13.12,31,27.9,45.22,43.8,19.66,21.98,34.42,46.91,46.03,73.92,20.16,46.9,29.9,118.15,17.95,166.76h.01Z"/>
          <path class="st7" d="M1720.79,837.76c-5.88,17.5,7.56,20.49,5.56,28.27-3,11.66-4.14,22.97-5.67,34.8-.86,6.62-10.73,17.38-3.64,30.13,6.1,10.97,6.45,2.94,8.78,27.57l-42.01,3.89c-1.85-9.67-1.72-19.06-2.46-28.81-1.09-14.44.57-28.22,2.36-42.64,6.02-48.44,28.14-89.73,57.82-127.22l12.95-16.36,11.7-14.16,6.29-7.94c12.36-15.6,24.4-30.89,34.54-48.32,8.12-13.96,11.97-29.7,16.77-45.05,11.37,7.58,12.74,12.69,26.06,6.16-.16,7.34-1.28,14.45-3.02,21.77l-25.01,6.81c-5.28,1.44-8.19,3.98-10.62,8.65-5.3,10.2-4.82,23.49,3,29.86,4.03,3.28,9.33,5.63,14.69,4.16-3.11,4.82-6.11,10.24-11.09,12.53s-22.7-3.07-34.12,1.51c-6.7,2.69-11.68,7.87-13.49,13.64-4.93,15.66,6.14,19.97,5.91,25.46.02-.39-3.39,9.01-9.19,7.74-7.67-1.67-15.11.51-21.12,5.93-8.57,7.72-8.84,21.56-1.28,30.53l-7.82,18.32c-7.5,1.47-13.88,6.78-15.9,12.77h0Z"/>
          <path class="st7" d="M1327.24,1333.69l-.94,10.96-40.08-2.84c-10.15-14.14-19.3-27.6-38.27-21.59-18.83,5.97-15.21,25.05-20.29,25.58-10.55,1.1-20.35,3.87-30.77,5.95-2,.4-1.44-4.32-.49-5.4,18.43-20.86,50.24-42.7,78.57-46.43,37.54-4.95,78.53.16,115.25,8.57,5.12,1.17,10.09,1.13,14.8,3.67,1.59,8.85,1.33,16.33,2.48,24.03s1.82,15.27,1.94,23.07l-16.68-4.06-22.63-29.26c-4.62-5.98-10.57-8.83-18.24-9.11-10.84-.4-23.66,5.34-24.65,16.86h0Z"/>
          <path class="st7" d="M807.2,1635l-23.89,9.07c1.4-9.9,4.55-18.43,9.11-26.65,2.76-4.96,7.01-7.64,11.44-10.77,14.8-10.46,23.98-15.27,42.12-20.62-15.87,13.03-30.53,29.64-38.79,48.98h.01Z"/>
          <path class="st7" d="M1521.19,1268.06h-.01"/>
          <path class="st7" d="M1763.94,933.5c-3.06,2.03-8.96,8.31-6.28,18.28,3.48,1.47,15.36.7,25.09-1.34l-18.82-16.94Z"/>
          <path class="st5" d="M1989.09,838.69c.14,2.57-1.07,2.87-1.23.55.13-1.15.66-1.59,1.23-.55Z"/>
          <circle class="st5" cx="1353.5" cy="1674" r=".63"/>
          <path class="st7" d="M946.48,1604.82c-9.37,4.46-13.32,12.45-12.47,22.12l-37.87-7.11c-6.84-1.28-7.04-22.42-29.05-21.13-4.2.25-8.06,2.29-13.05,3.23-.43-4.41,16.34-12.83,20.85-15.26,28.79-15.54,65.5-7.55,96.17.19,20.61,5.2,40.44,10.7,60.91,18.22l-1.15,46.75c-.03,1.27-.88,2.68-1.58,2.98-.93.4-2.28-.38-3.44-.78l-33.33-11.49c-5.76-10.49-9.63-21.68-16.75-31.53-6.31-8.71-19.79-10.69-29.24-6.19h0Z"/>
          <circle class="st5" cx="1195.5" cy="1319.5" r=".5"/>
          <path class="st7" d="M1689.18,1340.23c4.08-8.39,8.96-15.46,12.41-24.02,5.19-12.88,11.6-24.6,14.87-38.04,5.52-22.69,8.39-44.68,7.72-68.15-.46-16.15-.2-31.16-3.1-47.23-5.55-37.45-13.14-73.7-23.42-111.08l48.98-5.92c8.67,29.98,14.49,59.05,18.22,89.29,3.6,36.05,3.07,73.86-8.56,108.14-7.53,22.19-17.62,42.37-32.21,60.76-9.58,13.75-20.7,25.52-34.92,36.25h.01Z"/>
        </g>
        <path class="st9" d="M1650.03,1104.01l49.46,47.71s-1.08-16.97-2.69-22.08c-1.12-3.54-5.03-10.02-7.4-12.89-5.35-6.46-23.85-23.58-23.85-23.58-3.1,6.23-8.37,9.72-15.52,10.84Z"/>
      </g>
      <path class="st7" d="M1515.38,1332.39l-15.52-2.16,4.57,46.39c6.14.89,11.66,2.63,17.74,3.18,38.75,3.51,63.33,4.84,100.78-6.6,11.63-3.55,20.42-10.04,29.14-18.1,12.36-11.41,23.43-23.87,29.97-40.3-13.81-.68-6.66,16.73-24.77,22.3-6.08,1.87-12.51.07-18.53-1.9-1.86-2.35-4.82-3.1-7.85-2.37-11.83,2.84-23.29,4.2-35.86,5.01,1.77,11.22-2.69,22.56-12.97,26.96-8.98,3.84-20.56,2.47-27.17-4.47-5.59-5.86-9.89-11.9-15.72-17.38-4.98-4.68-5.73-8.24-23.81-10.57h0Z"/>
      <path class="st9" d="M1757.1,928.51c-5.08,3.5-8.21,8.56-8.2,15.46l-20.46-21.01c-2.04-3.09-.67-8.49,1.38-10.47,1.69-1.63,6.09-4.21,8.78-2.13l18.5,18.15Z"/>
      <path class="st7" d="M1469.09,239.46c-6.1,3.18-11.29,6.59-16.82,9.89l-20.04,11.94c19.68.94,38.69,2.56,55.43,6.57l-18.57-28.4Z"/>
      <path class="st0" d="M906.31,1734.79l-22.6-49.61-17.94-41.16c-4.43-10.16-13.53-24.21-2.03-30.11,3.9-2,9.94-1.79,12.43,2.91,9.06,17.07,15.83,34.67,23.81,52.24l15.88,35c3.1,6.83,6.02,13.47,8.79,21.13h0c1.63,4.49-3.37,8.73-5.97,10.62s-10.72,2.59-12.37-1.02Z"/>
      <path class="st2" d="M912.37,1750.54c8.42-.34,15.11-2.87,19.46-9.85l49.43,110.39c-3.82,7.04-8.05,12.74-15.16,18.94h-.01c-4.25-5.6-6.34-11.14-9-17.23l-44.72-102.25Z"/>
      <path class="st0" d="M947.26,1623.18c.54-3.9,4.32-6.47,7.29-7.3,3.39-.94,7.06-.96,9.64,1.92,3.2,3.58,22.16,49.4,24.42,53.64-3.93,6.3-10.5,7.82-18.98,5.88l-19.52-42.28c-1.7-3.68-3.42-7.74-2.85-11.86Z"/>
      <path class="st2" d="M975.28,1692.08c7.7,2.6,13.93-.09,19.17-6.55,7.78,16.8,19.97,35.39,26.91,52.55-1.13,11.65-3.14,22.79-7.5,34.25l-38.57-80.25Z"/>
      <path class="st0" d="M1169.88,1618.14l23.73,38.97c3.11,5.14,2.09,11.19-1.98,14.11-4.36,3.12-11.07,2.31-14.22-2.77l-21.4-34.19c1.38-9.35,6.26-14.41,13.87-16.12Z"/>
      <path class="st2" d="M1148.46,1622.19l-18.85-30.12,1.76-37.18,31.15,51.16c-8.04,2.95-12.95,8.17-14.06,16.14Z"/>
      <path class="st2" d="M1139.33,1468.56c.56-5.58,4.19-22.49,7.47-27.07l69.31,103.29c-7.22.78-15.11,5.44-16.45,13.56l-60.33-89.78Z"/>
      <path class="st0" d="M1209.98,1572.39c.3-9.47,6.58-14.05,14.93-14.97l70.49,101.25c3.24,4.7-.88,12.53-5.59,13.83h0c-7.31,2.01-11.7-.55-15.04-5.44l-64.79-94.67Z"/>
      <path class="st2" d="M1172.91,1380.73c2.57-6.95,6.57-12.94,12.13-18.31l91.12,123.4h0c-8.18,1.41-13.49,5.7-15.99,13.64l-87.26-118.73Z"/>
      <path class="st0" d="M1269.45,1512.68c3.75-8.79,9.42-13.26,16.62-14.26l85.73,119.63-12.86,15.09-89.49-120.46Z"/>
      <path class="st2" d="M1248.81,1336.86c4.69-3.81,12.22-4.36,16.44,1.15l40.15,52.49c10.46,13.68,21.04,26.04,31.2,40.61-8.09.53-13.54,4.15-16.33,10.84l-72.27-91.89c-3.75-3.73-3.26-9.9.81-13.2Z"/>
      <path class="st0" d="M1329.33,1452.67c-.32-4.62,6.76-12.77,13.78-11.18l64.18,79.71-6.17,27.09-71.79-95.62Z"/>
      <path class="st2" d="M1341.54,1334.23c1.39-1.79,4.35-4.9,7.79-4.58,3.64.34,8.81,3.43,11.31,6.55l25.85,32.26c-7.16,3.26-11.98,8.51-13.01,16.97l-32-41.85c-1.98-2.59-1.75-7.02.06-9.35Z"/>
      <path class="st0" d="M1413.15,1435.82c-8.4-8.34-23.69-30.93-30.71-39.49,1.5-8.4,6.3-13.3,13.13-16.05,3.89,4.26,11.01,12.64,17.56,20.58h0c1.06,11.6,1.27,22.7.02,34.96Z"/>
      <path class="st0" d="M1490.87,1230.92l39.13,48.19c.7,4.53-10.67,11.78-15.56,9.67-1.3-.56-16.78-16.94-20.19-23.65-5.2-10.21-2.82-22.65-3.38-34.21Z"/>
      <path class="st2" d="M1581.14,1345.94c-.69,7.11-4.64,10.06-11.79,6.8s-48.26-55.61-48.26-55.61c5.91-.3,11.59-2.25,16.29-9.55,0,0,44.45,51.26,43.75,58.37Z"/>
      <path class="st0" d="M1558.33,1228.33c-4.13-1.53-66.92-71.75-66.92-71.75-.51-8.81,1.65-17.81,3.6-26.94,9.55,11.94,19.44,22.15,29.53,32.82l43.06,45.94c4.08,4.37,7.1,10.36,1.66,15.51v-.02c-3.07,2.9-6.8,5.97-10.93,4.44Z"/>
      <path class="st2" d="M1581.67,1224.11s75.81,82.17,76.64,84.9c2.47,8.2-6.64,15.82-13.8,12.54s-23.14-23.9-23.14-23.9c-3.71-3.83-6.87-7.61-10.5-11.55l-25.85-28.04c-5.79-6.28-12.44-12.19-17.9-19.29,5.35-.64,14.78-6.67,14.56-14.67Z"/>
      <path class="st0" d="M1619.83,1152.67c1.74,7.26-2.58,13.64-12.67,15l-79.92-79.59c5.43-4.25,11.24-7,17.8-8.43l74.78,73.02Z"/>
      <path class="st2" d="M1670.73,1231.15l-10.49-10.38c-5.61-5.54-10.43-11.42-16.8-16.21l-27.3-27.82c8.92-2.5,12.83-8.34,12.62-16.93l25.27,25.22,47.84,47.08c.51,9-.35,17.07-2.2,26.12-5.41-4.05-9.53-8.27-14.16-12.76h0l-14.78-14.32Z"/>
      <path class="st0" d="M1656.96,1084.06c-1.65,6.13-8.79,10.84-15.7,11.05l-34.36-32.54,25.05-3.42,25.01,24.91Z"/>
      <path class="st4" d="M1910.27,959.4c-66.64,58.16-145.97,65.01-230.17,72.94-31.95,3.01-62.68,6.74-94.08,12.66-16.5,3.11-31.65,7.98-47.39,13.68-8.75,3.17-16.59,7.72-24.42,12.5-.62.39-1.07.93-1.62.68-.58-.26-.36-.89-.09-1.62,4.43-11.74,11.35-21.83,18.16-32.35,2.28-3.51,5.49-5.82,8.43-9.25h-.04c8.39-9.8,20.72-18.34,31.95-22.9,17.89-7.27,36.03-12.23,55.32-15.54,23.87-4.09,47.4-5.35,71.52-8.07l23.53-2.66,30.63-3.49c30.63-3.49,59.41-10.84,88.16-21.83,30.45-11.64,57.47-27.56,81.78-49.35,15.9-14.25,28.76-30.39,40.26-48.57,2.75-4.34,3.97-9.36,7.97-13.19-6.19,45.5-25.59,86.42-59.9,116.36Z"/>
      <path class="st9" d="M1797.85,892.05l-57.86-35.96c-3.3-2.05-5.49-5.45-5.46-8.7.03-3.48,1.45-7.28,5.11-8.8,2.39-1,5.22.1,7.5,1.44l64.3,37.61c-9.86-.02-14.21,4.94-13.59,14.42Z"/>
      <path class="st1" d="M1823.36,884.66l49.32,30.09h.02c-5.84,5.56-12.94,7.96-20.18,11.68l-42.08-27.21c-.92-8.87,2.75-14.21,12.91-14.56Z"/>
      <path class="st9" d="M1844.28,810.84c-7.49,3.88-8.66,9.77-5.48,17.04-18.7-5.34-35.94-12.13-54.18-18.56-9.26-3.26-18.09-6.19-27-10.11-3.96-1.75-5.6-6.79-4.83-10.53.6-2.91,4.77-7.31,8.86-6.19l82.63,28.35Z"/>
      <path class="st1" d="M1851.22,832.05c-3.22-6.84-3.32-11.93,5.75-16.58l44.11,15.1,43.47,15.09c-2.96,6.88-7.17,10.93-11.67,17.71h0s-81.66-31.32-81.66-31.32Z"/>
      <path class="st9" d="M1866.79,758.12l-79.51-8.26c-3.81-.39-4.84-6.54-4.16-8.96.92-3.25,3.59-6.69,7.98-6.58l78.16,5.12h.01c-6.05,4.23-5.69,12.2-2.48,18.68Z"/>
      <path class="st1" d="M1926.92,763.84c-14.97-1.35-29.65-2.14-44.15-4.56-4.36-.73-5.42-7.68-4.88-10.61.69-3.81,3.45-8.43,8.1-8.13l77.72,5.04h.01c1.87,7.82,3,14.09,3.65,21.92l-40.45-3.66Z"/>
      <path class="st9" d="M1824.11,678.78l51.33-11.78c-3.31,7.11-3.17,13.3.95,18.41l-50.3,9.76c-7.78-3.44-7.49-11.73-1.99-16.39Z"/>
      <path class="st1" d="M1889.9,665.16l35.78-8.79,11.4,17.62-45.72,9.27s-6.03-4.14-5.47-8.7,1.35-6.84,4.01-9.4Z"/>
      <path class="st9" d="M1839.2,627.43c-3.78-2.32-5.65-7.87-3.2-13.1,2.88-6.15,10.77-11.97,14.53-13.25.81,6.87,2.83,12.45,7.19,15.56-2.42,1.93-15.06,12.91-18.52,10.79Z"/>
      <path class="st1" d="M1866.33,610.83c-4.72-2.91-6.9-8.14-7.19-15.1l7.92-7.01,12.14,11.95-12.87,10.16Z"/>
      <path class="st1" d="M1831.39,603.89c-.25-.54-3.83-2.23-5.97-1.81-1.3-18.66-4.8-36.34-11.5-52.58,13.3,11.35,20.66,27.55,31.19,42.72-6.46,1.68-14.11,10.93-13.72,11.67Z"/>
      <path class="st9" d="M665.67,381.41l27,66.26c-4.01,5.83-7.02,10.81-12.47,15.94h0s-29.08-76.38-29.08-76.38c5.89.43,10.76-1.48,14.54-5.82Z"/>
      <path class="st0" d="M647.92,379.28l-29.64-79.82c-1.64-4.41,1.91-8.85,5.83-9.79,3.92-.94,7.72,1.76,9.4,6.13l13.19,34.35,16.13,43.6c-3.59,4.94-8.71,6.45-14.91,5.53Z"/>
      <path class="st0" d="M515.33,348c.3-4.67,6.76-11.87,10.54-13.88,1.63,1.71,2.89,8.85,3.54,13.53l9.72,70.34.2.68c-3.67,3.71-8.56,4.61-14.33,3.46l-9.67-74.13Z"/>
      <path class="st9" d="M540.39,425.94l6.75,49.73,3.02,23.32c-6.57-1.22-12.24-3.87-17.83-7.86h0s-6.63-61.74-6.63-61.74c5.18,1.74,10.1.84,14.69-3.46Z"/>
      <path class="st0" d="M602.21,404.28c-1.06,4.49-9.81,6.18-15.22,3.04l-22.29-90.91c.93-2.42,8.32-15.14,10.63-16.66l26.87,104.53Z"/>
      <path class="st9" d="M628.86,503.79c-4.83,3.73-10.33,3.95-16.24,5.3l-23.53-93.12c1.49,2.99,15.39.58,15.29-2.88l24.48,90.69Z"/>
      <path class="st1" d="M814.09,317.78c9.71,4.15,19.67,7.2,29.91,9.11,5.13,14.49,18.32,26.1,34.14,22.32,4.67-1.12,7.59-5.66,9.72-9.91h.01c6.28,2.72,14.31,2.69,23.21,1.3-3.37,8.07-24.9,17.12-32.19,18.2-23.32,3.44-49.67-3.45-71.46-12.33l6.66-28.69Z"/>
      <path class="st5" d="M853.3,290.29l24.63,47.24c-3.45,4.59-13.36,1.69-14.38.31l-21.02-40.17c1.84-3.53,4.15-7.92,10.77-7.39Z"/>
      <path class="st9" d="M839.16,290.29l-10.74-18.38c-2-4.83-2-7.08,3.57-22.72,6.94,11.25,15.87,30.09,17.32,33.26-3.16-.98-10.68,4.28-10.16,7.84Z"/>
      <path class="st9" d="M903.09,159.17c.04-2.58,3.69-4.95,5.64-5.11,2.32-.19,6.14.16,7.39,2.94l26.25,58.44c-4.8.17-9.01,1.34-10.74,6.61h0"/>
      <path class="st9" d="M854,194.17c.83-4.5,5.26-11.67,8.88-14.23l32.2,66.89c-4.56.8-8.39,3-11.37,6.85l-29.72-59.52Z"/>
      <path class="st5" d="M887,261.25c2.66-3.74,6.08-6.56,11.64-6.75l32.06,65.92c-.52,3.96-5.48,7.77-9.29,10.61l-34.41-69.78Z"/>
      <path class="st7" d="M918.21,134.72c19.48-6.04,40.26.4,59.22,7.7,11.18,4.31,21.61,8.47,31.69,15.46-1.91,4.54-7.32,17.89-10.6,18.22-4.45.44-3.99-18.38-20.31-25.25h0c-11.07-4.67-19.86,4.35-24.14,14.49-7.77-3.78-15.78-4.15-23.64-4.78l-7.86-13.27c-5.16-6.87-19.49-3.79-27.5-.29,0,0,16.9-10.35,23.13-12.28Z"/>
      <path class="st9" d="M967.89,172.26c-1.44-3.39-1.52-7.69,1.42-9.28,3.18-1.72,7.89-1.62,9.77,2.01,4.98,9.61,9.2,18.97,12.86,29.76-2.21,5.73-3.9,10.95-7.47,16.5l-16.58-38.99Z"/>
      <path class="st5" d="M1096.76,150.1c4.21-5.94,8.11-11.31,12.91-16.06l4.33,41.08c-4.3,5.5-9.65,4.4-13.92,2.71l-3.32-27.73Z"/>
      <path class="st9" d="M1115.32,184.26l4.99,51.73h0c-5.33,3.05-14.2-2-14.92-8.49-1.34-12.1-2.65-27-4.16-40.56,3.03.48,7.8,2.9,14.1-2.69Z"/>
      <path class="st5" d="M1163.8,92.63c5.94-3.65,11.71-6.54,18.15-8.15l-1.89,82.65h0c-6.55,4.92-11.95,3.31-16.39,1.31l.13-75.81Z"/>
      <path class="st9" d="M1180.33,177.83l-1.15,74.25c-.03,1.69-.63,3.69-1.46,4.41-.73.63-14.93-.67-14.72-14.99l.93-62.9c4.85,2.37,10.94,1.87,16.4-.77Z"/>
      <path class="st5" d="M1234.65,166.93l14.53-91.96c6.32.21,12.15,1.65,17.93,3.74l-16.19,90.66c-6.09,2.19-11.01,1.2-16.27-2.45Z"/>
      <path class="st9" d="M1236.16,261.04c-1.12,6.51-2.45,12.16-5.49,18.9-4.91-.04-9.21-2.6-12.52-5.89,1.66-16.19,4.08-31.3,6.56-47.21l7.94-50.93c5.77,5.82,17.02,2.83,17.02,2.83l-13.51,82.3Z"/>
      <path class="st5" d="M1307.65,179.85l25.25-71.58c6.2,3.24,11.74,6.66,16.32,11.6,0,0-27.05,67.09-27.19,66.46-7.26-1-11.32-2.4-14.38-6.49Z"/>
      <path class="st9" d="M1319.47,194.25l-26.52,64.41c-1.57,3.82-3.49,6.95-7.24,9.71-2.22,1.64-10.14-3-9.54-6.11l27.83-74.09c4.13,3.63,9.32,5.6,15.47,6.08Z"/>
      <path class="st5" d="M1372.88,202.91h-.01s27.06-42.38,27.06-42.38c5.34,3.77,9.16,8.18,13.68,13l-29.7,38.61c-3.22-.65-7.63-1.95-11.03-9.23Z"/>
      <path class="st9" d="M1368,209.29c1.35,3.91,4.66,7.06,10.78,10.05l-26,35.5c-3.52,3.89-11.3,3.39-15.65.11l30.87-45.65Z"/>
      <path class="st9" d="M1417.36,247.23c-2.88-7.07,10.95-14.5,15.7-17.17,1.74,4.09,3.93,8.63,8.55,12.05l-3.27,2.25c-4.78,3.07-17.47,11.48-20.98,2.87Z"/>
      <path class="st5" d="M1451.06,214.31l10.56,14.37-14.95,9.65c-2.77-1.18-7.11-6.03-9.33-12.21l13.72-11.81Z"/>
      <path class="st0" d="M463.33,428.59l3.11-41.7c4.14-7.16,8.85-7.02,14-1.21l-2.14,42.41c-5.25,2.88-10.23,2.96-14.97.51Z"/>
      <path class="st9" d="M478.03,434.75l-.57,22.24-14.96-17.74.45-4.36c4.89,2.06,9.9,2.29,15.08-.14Z"/>
      <path class="st7" d="M1280.76,1697.74c-15.96,5.24-35,9.15-51.81,8.21-21.77-1.22-42.75-3.89-63.99-7.8-13.72-2.53-26.19-7.41-39.53-11.28.12-4.41.05-7.68.48-11.44l1.47-12.81,1.6-24.82c5.85,1.03,12.92,3.14,16.46,7.59,7.21,9.08,12.3,19.01,18.6,28.62,6.68,10.17,17.5,15.59,30,11.3,9.8-3.37,15.6-14.23,15.37-24.65l20.98,2.7c9.33,1.21,17.9,1.78,27.24,2.96,3.14,5.72,6.03,11.52,11.41,15.68,7.47,5.77,18.02,6.07,27.02,1.74,7.42-3.57,13.58-11.46,14.23-21.87h-.03s35.76-8.1,35.76-8.1c-16.51,20.81-40.47,35.83-65.26,43.97Z"/>
    </g>
  </g>
</svg>